<svg width="5" height="13" viewBox="0 0 5 13" fill="none" xmlns="http://www.w3.org/2000/svg">
<path d="M2.09226 4.52137C3.24881 4.52137 4.18452 5.34858 4.18452 6.37102C4.18452 7.39347 3.24881 8.22068 2.09226 8.22068C0.935705 8.22068 0 7.39347 0 6.37102C0 5.34858 0.935705 4.52137 2.09226 4.52137ZM0 1.84965C0 2.8721 0.935705 3.6993 2.09226 3.6993C3.24881 3.6993 4.18452 2.8721 4.18452 1.84965C4.18452 0.827206 3.24881 0 2.09226 0C0.935705 0 0 0.827206 0 1.84965ZM0 10.8924C0 11.9148 0.935705 12.742 2.09226 12.742C3.24881 12.742 4.18452 11.9148 4.18452 10.8924C4.18452 9.86995 3.24881 9.04275 2.09226 9.04275C0.935705 9.04275 0 9.86995 0 10.8924Z" fill="white"/>
</svg>
