<svg width="500" height="112" viewBox="0 0 500 112" fill="none" xmlns="http://www.w3.org/2000/svg">
<g filter="url(#filter0_d_130_90)">
<g filter="url(#filter1_d_130_90)">
<rect x="6" y="6" width="456" height="68" rx="8" fill="white"/>
<rect x="7" y="7" width="454" height="66" rx="7" stroke="#FFCD73" stroke-width="2"/>
</g>
<rect x="12.9459" y="12.0523" width="6.51935" height="6.68313" rx="3.25968" fill="#FFCD73"/>
<rect x="247.535" y="12.0523" width="6.51935" height="6.68313" rx="3.25968" fill="#FFCD73"/>
<rect x="130.24" y="12.0523" width="6.51935" height="6.68313" rx="3.25968" fill="#E8EAEE"/>
<rect x="364.829" y="12.0523" width="6.51935" height="6.68313" rx="3.25968" fill="#E8EAEE"/>
<rect x="71.5931" y="12.0523" width="6.51935" height="6.68313" rx="3.25968" fill="#FFCD73"/>
<rect x="306.182" y="12.0523" width="6.51935" height="6.68313" rx="3.25968" fill="#FFCD73"/>
<rect x="188.887" y="12.0523" width="6.51935" height="6.68313" rx="3.25968" fill="#FFCD73"/>
<rect x="423.477" y="12.0523" width="6.51935" height="6.68313" rx="3.25968" fill="#E8EAEE"/>
<rect x="440.166" y="12.2042" width="6.51935" height="6.68313" rx="3.25968" fill="#E8EAEE"/>
<rect x="21.3241" y="12.0523" width="6.51935" height="6.68313" rx="3.25968" fill="#FFCD73"/>
<rect x="255.913" y="12.0523" width="6.51935" height="6.68313" rx="3.25968" fill="#FFCD73"/>
<rect x="138.618" y="12.0523" width="6.51935" height="6.68313" rx="3.25968" fill="#89672A"/>
<rect x="373.207" y="12.0523" width="6.51935" height="6.68313" rx="3.25968" fill="#FFCD73"/>
<rect x="79.9713" y="12.0523" width="6.51935" height="6.68313" rx="3.25968" fill="#FFCD73"/>
<rect x="314.56" y="12.0523" width="6.51935" height="6.68313" rx="3.25968" fill="#89672A"/>
<rect x="197.266" y="12.0523" width="6.51935" height="6.68313" rx="3.25968" fill="#E8EAEE"/>
<rect x="431.855" y="12.0523" width="6.51935" height="6.68313" rx="3.25968" fill="#FFCD73"/>
<rect x="448.544" y="12.2042" width="6.51935" height="6.68313" rx="3.25968" fill="#FFCD73"/>
<rect x="29.7022" y="12.0523" width="6.51935" height="6.68313" rx="3.25968" fill="#E8EAEE"/>
<rect x="264.291" y="12.0523" width="6.51935" height="6.68313" rx="3.25968" fill="#89672A"/>
<rect x="146.997" y="12.0523" width="6.51935" height="6.68313" rx="3.25968" fill="#89672A"/>
<rect x="381.586" y="12.0523" width="6.51935" height="6.68313" rx="3.25968" fill="#FFCD73"/>
<rect x="88.3494" y="12.0523" width="6.51935" height="6.68313" rx="3.25968" fill="#FFCD73"/>
<rect x="322.938" y="12.0523" width="6.51935" height="6.68313" rx="3.25968" fill="#E8EAEE"/>
<rect x="205.644" y="12.0523" width="6.51935" height="6.68313" rx="3.25968" fill="#FFCD73"/>
<rect x="38.0804" y="12.0523" width="6.51935" height="6.68313" rx="3.25968" fill="#FFCD73"/>
<rect x="272.669" y="12.0523" width="6.51935" height="6.68313" rx="3.25968" fill="#E8EAEE"/>
<rect x="155.375" y="12.0523" width="6.51935" height="6.68313" rx="3.25968" fill="#FFCD73"/>
<rect x="389.964" y="12.0523" width="6.51935" height="6.68313" rx="3.25968" fill="#89672A"/>
<rect x="96.7276" y="12.0523" width="6.51935" height="6.68313" rx="3.25968" fill="#E8EAEE"/>
<rect x="331.316" y="12.0523" width="6.51935" height="6.68313" rx="3.25968" fill="#E8EAEE"/>
<rect x="214.022" y="12.0523" width="6.51935" height="6.68313" rx="3.25968" fill="#FFCD73"/>
<rect x="46.4586" y="12.0523" width="6.51935" height="6.68313" rx="3.25968" fill="#FFCD73"/>
<rect x="281.047" y="12.0523" width="6.51935" height="6.68313" rx="3.25968" fill="#FFCD73"/>
<rect x="163.753" y="12.0523" width="6.51935" height="6.68313" rx="3.25968" fill="#89672A"/>
<rect x="398.342" y="12.0523" width="6.51935" height="6.68313" rx="3.25968" fill="#FFCD73"/>
<rect x="105.106" y="12.0523" width="6.51935" height="6.68313" rx="3.25968" fill="#89672A"/>
<rect x="339.695" y="12.0523" width="6.51935" height="6.68313" rx="3.25968" fill="#FFCD73"/>
<rect x="222.4" y="12.0523" width="6.51935" height="6.68313" rx="3.25968" fill="#FFCD73"/>
<rect x="54.8368" y="12.0523" width="6.51935" height="6.68313" rx="3.25968" fill="#CE7516"/>
<rect x="289.426" y="12.0523" width="6.51935" height="6.68313" rx="3.25968" fill="#FFCD73"/>
<rect x="172.131" y="12.0523" width="6.51935" height="6.68313" rx="3.25968" fill="#FFCD73"/>
<rect x="406.72" y="12.0523" width="6.51935" height="6.68313" rx="3.25968" fill="#CE7516"/>
<rect x="113.484" y="12.0523" width="6.51935" height="6.68313" rx="3.25968" fill="#FFCD73"/>
<rect x="348.073" y="12.0523" width="6.51935" height="6.68313" rx="3.25968" fill="#CE7516"/>
<rect x="230.778" y="12.0523" width="6.51935" height="6.68313" rx="3.25968" fill="#FFCD73"/>
<rect x="63.2149" y="12.0523" width="6.51935" height="6.68313" rx="3.25968" fill="#E8EAEE"/>
<rect x="297.804" y="12.0523" width="6.51935" height="6.68313" rx="3.25968" fill="#CE7516"/>
<rect x="180.509" y="12.0523" width="6.51935" height="6.68313" rx="3.25968" fill="#89672A"/>
<rect x="415.098" y="12.0523" width="6.51935" height="6.68313" rx="3.25968" fill="#CE7516"/>
<rect x="121.862" y="12.0523" width="6.51935" height="6.68313" rx="3.25968" fill="#FFCD73"/>
<rect x="356.451" y="12.0523" width="6.51935" height="6.68313" rx="3.25968" fill="#89672A"/>
<rect x="239.156" y="12.0523" width="6.51935" height="6.68313" rx="3.25968" fill="#FFCD73"/>
<rect x="12.9459" y="20.2544" width="6.51935" height="6.68313" rx="3.25968" fill="#89672A"/>
<rect x="247.535" y="20.2544" width="6.51935" height="6.68313" rx="3.25968" fill="#FFCD73"/>
<rect x="130.24" y="20.2544" width="6.51935" height="6.68313" rx="3.25968" fill="#E8EAEE"/>
<rect x="364.829" y="20.2544" width="6.51935" height="6.68313" rx="3.25968" fill="#FFCD73"/>
<rect x="71.5931" y="20.2544" width="6.51935" height="6.68313" rx="3.25968" fill="#89672A"/>
<rect x="306.182" y="20.2544" width="6.51935" height="6.68313" rx="3.25968" fill="#FFCD73"/>
<rect x="188.887" y="20.2544" width="6.51935" height="6.68313" rx="3.25968" fill="#E8EAEE"/>
<rect x="423.477" y="20.2544" width="6.51935" height="6.68313" rx="3.25968" fill="#FFCD73"/>
<rect x="448.544" y="20.1439" width="6.51935" height="6.68313" rx="3.25968" fill="#89672A"/>
<rect x="21.3241" y="20.2544" width="6.51935" height="6.68313" rx="3.25968" fill="#89672A"/>
<rect x="255.913" y="20.2544" width="6.51935" height="6.68313" rx="3.25968" fill="#89672A"/>
<rect x="138.619" y="20.2544" width="6.51935" height="6.68313" rx="3.25968" fill="#89672A"/>
<rect x="373.207" y="20.2544" width="6.51935" height="6.68313" rx="3.25968" fill="#89672A"/>
<rect x="79.9713" y="20.2544" width="6.51935" height="6.68313" rx="3.25968" fill="#FFCD73"/>
<rect x="314.56" y="20.2544" width="6.51935" height="6.68313" rx="3.25968" fill="#FFCD73"/>
<rect x="197.266" y="20.2544" width="6.51935" height="6.68313" rx="3.25968" fill="#E8EAEE"/>
<rect x="431.855" y="20.2544" width="6.51935" height="6.68313" rx="3.25968" fill="#FFCD73"/>
<rect x="29.7022" y="20.2544" width="6.51935" height="6.68313" rx="3.25968" fill="#E8EAEE"/>
<rect x="264.291" y="20.2544" width="6.51935" height="6.68313" rx="3.25968" fill="#E8EAEE"/>
<rect x="146.997" y="20.2544" width="6.51935" height="6.68313" rx="3.25968" fill="#FFCD73"/>
<rect x="381.586" y="20.2544" width="6.51935" height="6.68313" rx="3.25968" fill="#FFCD73"/>
<rect x="88.3494" y="20.2544" width="6.51935" height="6.68313" rx="3.25968" fill="#FFCD73"/>
<rect x="322.938" y="20.2544" width="6.51935" height="6.68313" rx="3.25968" fill="#E8EAEE"/>
<rect x="205.644" y="20.2544" width="6.51935" height="6.68313" rx="3.25968" fill="#FFCD73"/>
<rect x="38.0804" y="20.2544" width="6.51935" height="6.68313" rx="3.25968" fill="#E8EAEE"/>
<rect x="272.669" y="20.2544" width="6.51935" height="6.68313" rx="3.25968" fill="#E8EAEE"/>
<rect x="155.375" y="20.2544" width="6.51935" height="6.68313" rx="3.25968" fill="#FFCD73"/>
<rect x="389.964" y="20.2544" width="6.51935" height="6.68313" rx="3.25968" fill="#89672A"/>
<rect x="96.7276" y="20.2544" width="6.51935" height="6.68313" rx="3.25968" fill="#E8EAEE"/>
<rect x="331.316" y="20.2544" width="6.51935" height="6.68313" rx="3.25968" fill="#FFCD73"/>
<rect x="214.022" y="20.2544" width="6.51935" height="6.68313" rx="3.25968" fill="#FFCD73"/>
<rect x="46.4586" y="20.2544" width="6.51935" height="6.68313" rx="3.25968" fill="#E8EAEE"/>
<rect x="281.047" y="20.2544" width="6.51935" height="6.68313" rx="3.25968" fill="#E8EAEE"/>
<rect x="163.753" y="20.2544" width="6.51935" height="6.68313" rx="3.25968" fill="#E8EAEE"/>
<rect x="398.342" y="20.2544" width="6.51935" height="6.68313" rx="3.25968" fill="#89672A"/>
<rect x="105.106" y="20.2544" width="6.51935" height="6.68313" rx="3.25968" fill="#E8EAEE"/>
<rect x="339.695" y="20.2544" width="6.51935" height="6.68313" rx="3.25968" fill="#FFCD73"/>
<rect x="222.4" y="20.2544" width="6.51935" height="6.68313" rx="3.25968" fill="#E8EAEE"/>
<rect x="54.8368" y="20.2544" width="6.51935" height="6.68313" rx="3.25968" fill="#E8EAEE"/>
<rect x="289.426" y="20.2544" width="6.51935" height="6.68313" rx="3.25968" fill="#89672A"/>
<rect x="172.131" y="20.2544" width="6.51935" height="6.68313" rx="3.25968" fill="#E8EAEE"/>
<rect x="406.72" y="20.2544" width="6.51935" height="6.68313" rx="3.25968" fill="#FFCD73"/>
<rect x="113.484" y="20.2544" width="6.51935" height="6.68313" rx="3.25968" fill="#E8EAEE"/>
<rect x="348.073" y="20.2544" width="6.51935" height="6.68313" rx="3.25968" fill="#FFCD73"/>
<rect x="230.778" y="20.2544" width="6.51935" height="6.68313" rx="3.25968" fill="#E8EAEE"/>
<rect x="63.2149" y="20.2544" width="6.51935" height="6.68313" rx="3.25968" fill="#FFCD73"/>
<rect x="297.804" y="20.2544" width="6.51935" height="6.68313" rx="3.25968" fill="#FFCD73"/>
<rect x="180.509" y="20.2544" width="6.51935" height="6.68313" rx="3.25968" fill="#FFCD73"/>
<rect x="415.098" y="20.2544" width="6.51935" height="6.68313" rx="3.25968" fill="#89672A"/>
<rect x="440.166" y="20.1439" width="6.51935" height="6.68313" rx="3.25968" fill="#FFCD73"/>
<rect x="121.862" y="20.2544" width="6.51935" height="6.68313" rx="3.25968" fill="#FFCD73"/>
<rect x="356.451" y="20.2544" width="6.51935" height="6.68313" rx="3.25968" fill="#FFCD73"/>
<rect x="239.156" y="20.2544" width="6.51935" height="6.68313" rx="3.25968" fill="#FFCD73"/>
<rect x="12.9459" y="28.4564" width="6.51935" height="6.68313" rx="3.25968" fill="#FFCD73"/>
<rect x="247.535" y="28.4564" width="6.51935" height="6.68313" rx="3.25968" fill="#E8EAEE"/>
<rect x="130.24" y="28.4564" width="6.51935" height="6.68313" rx="3.25968" fill="#89672A"/>
<rect x="364.829" y="28.4564" width="6.51935" height="6.68313" rx="3.25968" fill="#FFCD73"/>
<rect x="71.5931" y="28.4564" width="6.51935" height="6.68313" rx="3.25968" fill="#FFCD73"/>
<rect x="306.182" y="28.4564" width="6.51935" height="6.68313" rx="3.25968" fill="#FFCD73"/>
<rect x="188.887" y="28.4564" width="6.51935" height="6.68313" rx="3.25968" fill="#E8EAEE"/>
<rect x="423.477" y="28.4564" width="6.51935" height="6.68313" rx="3.25968" fill="#89672A"/>
<rect x="448.557" y="28.4012" width="6.51935" height="6.68313" rx="3.25968" fill="#E8EAEE"/>
<rect x="21.3241" y="28.4564" width="6.51935" height="6.68313" rx="3.25968" fill="#89672A"/>
<rect x="255.913" y="28.4564" width="6.51935" height="6.68313" rx="3.25968" fill="#89672A"/>
<rect x="138.619" y="28.4564" width="6.51935" height="6.68313" rx="3.25968" fill="#E8EAEE"/>
<rect x="373.207" y="28.4564" width="6.51935" height="6.68313" rx="3.25968" fill="#89672A"/>
<rect x="79.9713" y="28.4564" width="6.51935" height="6.68313" rx="3.25968" fill="#89672A"/>
<rect x="314.56" y="28.4564" width="6.51935" height="6.68313" rx="3.25968" fill="#89672A"/>
<rect x="197.266" y="28.4564" width="6.51935" height="6.68313" rx="3.25968" fill="#FFCD73"/>
<rect x="29.7022" y="28.4564" width="6.51935" height="6.68313" rx="3.25968" fill="#E8EAEE"/>
<rect x="264.291" y="28.4564" width="6.51935" height="6.68313" rx="3.25968" fill="#E8EAEE"/>
<rect x="146.997" y="28.4564" width="6.51935" height="6.68313" rx="3.25968" fill="#E8EAEE"/>
<rect x="381.586" y="28.4564" width="6.51935" height="6.68313" rx="3.25968" fill="#FFCD73"/>
<rect x="88.3494" y="28.4564" width="6.51935" height="6.68313" rx="3.25968" fill="#FFCD73"/>
<rect x="322.938" y="28.4564" width="6.51935" height="6.68313" rx="3.25968" fill="#FFCD73"/>
<rect x="205.644" y="28.4564" width="6.51935" height="6.68313" rx="3.25968" fill="#FFCD73"/>
<rect x="38.0804" y="28.4564" width="6.51935" height="6.68313" rx="3.25968" fill="#FFCD73"/>
<rect x="272.669" y="28.4564" width="6.51935" height="6.68313" rx="3.25968" fill="#E8EAEE"/>
<rect x="155.375" y="28.4564" width="6.51935" height="6.68313" rx="3.25968" fill="#FFCD73"/>
<rect x="389.964" y="28.4564" width="6.51935" height="6.68313" rx="3.25968" fill="#FFCD73"/>
<rect x="96.7276" y="28.4564" width="6.51935" height="6.68313" rx="3.25968" fill="#FFCD73"/>
<rect x="331.316" y="28.4564" width="6.51935" height="6.68313" rx="3.25968" fill="#89672A"/>
<rect x="214.022" y="28.4564" width="6.51935" height="6.68313" rx="3.25968" fill="#FFCD73"/>
<rect x="46.4586" y="28.4564" width="6.51935" height="6.68313" rx="3.25968" fill="#E8EAEE"/>
<rect x="281.047" y="28.4564" width="6.51935" height="6.68313" rx="3.25968" fill="#FFCD73"/>
<rect x="163.753" y="28.4564" width="6.51935" height="6.68313" rx="3.25968" fill="#E8EAEE"/>
<rect x="398.342" y="28.4564" width="6.51935" height="6.68313" rx="3.25968" fill="#FFCD73"/>
<rect x="105.106" y="28.4564" width="6.51935" height="6.68313" rx="3.25968" fill="#FFCD73"/>
<rect x="339.695" y="28.4564" width="6.51935" height="6.68313" rx="3.25968" fill="#FFCD73"/>
<rect x="222.4" y="28.4564" width="6.51935" height="6.68313" rx="3.25968" fill="#FFCD73"/>
<rect x="54.8368" y="28.4564" width="6.51935" height="6.68313" rx="3.25968" fill="#E8EAEE"/>
<rect x="289.426" y="28.4564" width="6.51935" height="6.68313" rx="3.25968" fill="#89672A"/>
<rect x="172.131" y="28.4564" width="6.51935" height="6.68313" rx="3.25968" fill="#E8EAEE"/>
<rect x="406.72" y="28.4564" width="6.51935" height="6.68313" rx="3.25968" fill="#CE7516"/>
<rect x="431.801" y="28.4012" width="6.51935" height="6.68313" rx="3.25968" fill="#CE7516"/>
<rect x="113.484" y="28.4564" width="6.51935" height="6.68313" rx="3.25968" fill="#E8EAEE"/>
<rect x="348.073" y="28.4564" width="6.51935" height="6.68313" rx="3.25968" fill="#89672A"/>
<rect x="230.778" y="28.4564" width="6.51935" height="6.68313" rx="3.25968" fill="#E8EAEE"/>
<rect x="63.2149" y="28.4564" width="6.51935" height="6.68313" rx="3.25968" fill="#FFCD73"/>
<rect x="297.804" y="28.4564" width="6.51935" height="6.68313" rx="3.25968" fill="#FFCD73"/>
<rect x="180.509" y="28.4564" width="6.51935" height="6.68313" rx="3.25968" fill="#FFCD73"/>
<rect x="415.098" y="28.4564" width="6.51935" height="6.68313" rx="3.25968" fill="#CE7516"/>
<rect x="440.179" y="28.4012" width="6.51935" height="6.68313" rx="3.25968" fill="#E8EAEE"/>
<rect x="121.862" y="28.4564" width="6.51935" height="6.68313" rx="3.25968" fill="#E8EAEE"/>
<rect x="356.451" y="28.4564" width="6.51935" height="6.68313" rx="3.25968" fill="#89672A"/>
<rect x="239.156" y="28.4564" width="6.51935" height="6.68313" rx="3.25968" fill="#FFCD73"/>
<rect x="12.9459" y="36.6584" width="6.51935" height="6.68313" rx="3.25968" fill="#89672A"/>
<rect x="247.535" y="36.6584" width="6.51935" height="6.68313" rx="3.25968" fill="#89672A"/>
<rect x="130.24" y="36.6584" width="6.51935" height="6.68313" rx="3.25968" fill="#FFCD73"/>
<rect x="364.829" y="36.6584" width="6.51935" height="6.68313" rx="3.25968" fill="#89672A"/>
<rect x="71.5931" y="36.6584" width="6.51935" height="6.68313" rx="3.25968" fill="#89672A"/>
<rect x="306.182" y="36.6584" width="6.51935" height="6.68313" rx="3.25968" fill="#FFCD73"/>
<rect x="188.887" y="36.6584" width="6.51935" height="6.68313" rx="3.25968" fill="#E8EAEE"/>
<rect x="423.477" y="36.6584" width="6.51935" height="6.68313" rx="3.25968" fill="#FFCD73"/>
<rect x="448.557" y="36.6584" width="6.51935" height="6.68313" rx="3.25968" fill="#E8EAEE"/>
<rect x="21.3241" y="36.6584" width="6.51935" height="6.68313" rx="3.25968" fill="#89672A"/>
<rect x="255.913" y="36.6584" width="6.51935" height="6.68313" rx="3.25968" fill="#FFCD73"/>
<rect x="138.619" y="36.6584" width="6.51935" height="6.68313" rx="3.25968" fill="#FFCD73"/>
<rect x="373.207" y="36.6584" width="6.51935" height="6.68313" rx="3.25968" fill="#89672A"/>
<rect x="79.9713" y="36.6584" width="6.51935" height="6.68313" rx="3.25968" fill="#FFCD73"/>
<rect x="314.56" y="36.6584" width="6.51935" height="6.68313" rx="3.25968" fill="#FFCD73"/>
<rect x="197.266" y="36.6584" width="6.51935" height="6.68313" rx="3.25968" fill="#E8EAEE"/>
<rect x="29.7022" y="36.6584" width="6.51935" height="6.68313" rx="3.25968" fill="#FFCD73"/>
<rect x="264.291" y="36.6584" width="6.51935" height="6.68313" rx="3.25968" fill="#FFCD73"/>
<rect x="146.997" y="36.6584" width="6.51935" height="6.68313" rx="3.25968" fill="#FFCD73"/>
<rect x="381.586" y="36.6584" width="6.51935" height="6.68313" rx="3.25968" fill="#FFCD73"/>
<rect x="88.3494" y="36.6584" width="6.51935" height="6.68313" rx="3.25968" fill="#89672A"/>
<rect x="322.938" y="36.6584" width="6.51935" height="6.68313" rx="3.25968" fill="#E8EAEE"/>
<rect x="205.644" y="36.6584" width="6.51935" height="6.68313" rx="3.25968" fill="#E8EAEE"/>
<rect x="38.0804" y="36.6584" width="6.51935" height="6.68313" rx="3.25968" fill="#E8EAEE"/>
<rect x="272.669" y="36.6584" width="6.51935" height="6.68313" rx="3.25968" fill="#FFCD73"/>
<rect x="155.375" y="36.6584" width="6.51935" height="6.68313" rx="3.25968" fill="#FFCD73"/>
<rect x="389.964" y="36.6584" width="6.51935" height="6.68313" rx="3.25968" fill="#89672A"/>
<rect x="96.7276" y="36.6584" width="6.51935" height="6.68313" rx="3.25968" fill="#FFCD73"/>
<rect x="331.316" y="36.6584" width="6.51935" height="6.68313" rx="3.25968" fill="#FFCD73"/>
<rect x="214.022" y="36.6584" width="6.51935" height="6.68313" rx="3.25968" fill="#89672A"/>
<rect x="46.4586" y="36.6584" width="6.51935" height="6.68313" rx="3.25968" fill="#FFCD73"/>
<rect x="281.047" y="36.6584" width="6.51935" height="6.68313" rx="3.25968" fill="#E8EAEE"/>
<rect x="163.753" y="36.6584" width="6.51935" height="6.68313" rx="3.25968" fill="#FFCD73"/>
<rect x="398.342" y="36.6584" width="6.51935" height="6.68313" rx="3.25968" fill="#89672A"/>
<rect x="105.106" y="36.6584" width="6.51935" height="6.68313" rx="3.25968" fill="#E8EAEE"/>
<rect x="339.695" y="36.6584" width="6.51935" height="6.68313" rx="3.25968" fill="#89672A"/>
<rect x="222.4" y="36.6584" width="6.51935" height="6.68313" rx="3.25968" fill="#FFCD73"/>
<rect x="54.8368" y="36.6584" width="6.51935" height="6.68313" rx="3.25968" fill="#FFCD73"/>
<rect x="289.426" y="36.6584" width="6.51935" height="6.68313" rx="3.25968" fill="#CE7516"/>
<rect x="172.131" y="36.6584" width="6.51935" height="6.68313" rx="3.25968" fill="#FFCD73"/>
<rect x="406.72" y="36.6584" width="6.51935" height="6.68313" rx="3.25968" fill="#CE7516"/>
<rect x="431.801" y="36.6584" width="6.51935" height="6.68313" rx="3.25968" fill="#FFCD73"/>
<rect x="113.484" y="36.6584" width="6.51935" height="6.68313" rx="3.25968" fill="#FFCD73"/>
<rect x="348.073" y="36.6584" width="6.51935" height="6.68313" rx="3.25968" fill="#FFCD73"/>
<rect x="230.778" y="36.6584" width="6.51935" height="6.68313" rx="3.25968" fill="#E8EAEE"/>
<rect x="63.2149" y="36.6584" width="6.51935" height="6.68313" rx="3.25968" fill="#89672A"/>
<rect x="297.804" y="36.6584" width="6.51935" height="6.68313" rx="3.25968" fill="#FFCD73"/>
<rect x="180.509" y="36.6584" width="6.51935" height="6.68313" rx="3.25968" fill="#E8EAEE"/>
<rect x="415.098" y="36.6584" width="6.51935" height="6.68313" rx="3.25968" fill="#89672A"/>
<rect x="440.179" y="36.6584" width="6.51935" height="6.68313" rx="3.25968" fill="#E8EAEE"/>
<rect x="121.862" y="36.6584" width="6.51935" height="6.68313" rx="3.25968" fill="#FFCD73"/>
<rect x="356.451" y="36.6584" width="6.51935" height="6.68313" rx="3.25968" fill="#89672A"/>
<rect x="239.156" y="36.6584" width="6.51935" height="6.68313" rx="3.25968" fill="#FFCD73"/>
<rect x="12.9459" y="44.8605" width="6.51935" height="6.68313" rx="3.25968" fill="#89672A"/>
<rect x="247.535" y="44.8604" width="6.51935" height="6.68313" rx="3.25968" fill="#FFCD73"/>
<rect x="130.24" y="44.8604" width="6.51935" height="6.68313" rx="3.25968" fill="#89672A"/>
<rect x="364.829" y="44.8604" width="6.51935" height="6.68313" rx="3.25968" fill="#89672A"/>
<rect x="71.5931" y="44.8604" width="6.51935" height="6.68313" rx="3.25968" fill="#FFCD73"/>
<rect x="306.182" y="44.8604" width="6.51935" height="6.68313" rx="3.25968" fill="#CE7516"/>
<rect x="188.887" y="44.8604" width="6.51935" height="6.68313" rx="3.25968" fill="#E8EAEE"/>
<rect x="423.477" y="44.8604" width="6.51935" height="6.68313" rx="3.25968" fill="#CE7516"/>
<rect x="448.557" y="44.9157" width="6.51935" height="6.68313" rx="3.25968" fill="#E8EAEE"/>
<rect x="21.3241" y="44.8604" width="6.51935" height="6.68313" rx="3.25968" fill="#FFCD73"/>
<rect x="255.913" y="44.8604" width="6.51935" height="6.68313" rx="3.25968" fill="#89672A"/>
<rect x="138.619" y="44.8604" width="6.51935" height="6.68313" rx="3.25968" fill="#E8EAEE"/>
<rect x="373.207" y="44.8604" width="6.51935" height="6.68313" rx="3.25968" fill="#CE7516"/>
<rect x="79.9713" y="44.8604" width="6.51935" height="6.68313" rx="3.25968" fill="#FFCD73"/>
<rect x="314.56" y="44.8604" width="6.51935" height="6.68313" rx="3.25968" fill="#89672A"/>
<rect x="197.266" y="44.8604" width="6.51935" height="6.68313" rx="3.25968" fill="#E8EAEE"/>
<rect x="29.7022" y="44.8604" width="6.51935" height="6.68313" rx="3.25968" fill="#FFCD73"/>
<rect x="264.291" y="44.8604" width="6.51935" height="6.68313" rx="3.25968" fill="#89672A"/>
<rect x="146.997" y="44.8604" width="6.51935" height="6.68313" rx="3.25968" fill="#E8EAEE"/>
<rect x="381.586" y="44.8604" width="6.51935" height="6.68313" rx="3.25968" fill="#FFCD73"/>
<rect x="88.3494" y="44.8604" width="6.51935" height="6.68313" rx="3.25968" fill="#89672A"/>
<rect x="322.938" y="44.8604" width="6.51935" height="6.68313" rx="3.25968" fill="#FFCD73"/>
<rect x="205.644" y="44.8604" width="6.51935" height="6.68313" rx="3.25968" fill="#FFCD73"/>
<rect x="38.0804" y="44.8604" width="6.51935" height="6.68313" rx="3.25968" fill="#89672A"/>
<rect x="272.669" y="44.8604" width="6.51935" height="6.68313" rx="3.25968" fill="#FFCD73"/>
<rect x="155.375" y="44.8604" width="6.51935" height="6.68313" rx="3.25968" fill="#E8EAEE"/>
<rect x="389.964" y="44.8604" width="6.51935" height="6.68313" rx="3.25968" fill="#FFCD73"/>
<rect x="96.7276" y="44.8604" width="6.51935" height="6.68313" rx="3.25968" fill="#E8EAEE"/>
<rect x="331.316" y="44.8604" width="6.51935" height="6.68313" rx="3.25968" fill="#89672A"/>
<rect x="214.022" y="44.8604" width="6.51935" height="6.68313" rx="3.25968" fill="#E8EAEE"/>
<rect x="46.4586" y="44.8604" width="6.51935" height="6.68313" rx="3.25968" fill="#FFCD73"/>
<rect x="281.047" y="44.8604" width="6.51935" height="6.68313" rx="3.25968" fill="#FFCD73"/>
<rect x="163.753" y="44.8604" width="6.51935" height="6.68313" rx="3.25968" fill="#FFCD73"/>
<rect x="398.342" y="44.8604" width="6.51935" height="6.68313" rx="3.25968" fill="#89672A"/>
<rect x="105.106" y="44.8604" width="6.51935" height="6.68313" rx="3.25968" fill="#E8EAEE"/>
<rect x="339.695" y="44.8604" width="6.51935" height="6.68313" rx="3.25968" fill="#E8EAEE"/>
<rect x="222.4" y="44.8604" width="6.51935" height="6.68313" rx="3.25968" fill="#89672A"/>
<rect x="54.8368" y="44.8604" width="6.51935" height="6.68313" rx="3.25968" fill="#FFCD73"/>
<rect x="289.426" y="44.8604" width="6.51935" height="6.68313" rx="3.25968" fill="#89672A"/>
<rect x="172.131" y="44.8604" width="6.51935" height="6.68313" rx="3.25968" fill="#E8EAEE"/>
<rect x="406.72" y="44.8604" width="6.51935" height="6.68313" rx="3.25968" fill="#89672A"/>
<rect x="431.801" y="44.9157" width="6.51935" height="6.68313" rx="3.25968" fill="#FFCD73"/>
<rect x="113.484" y="44.8604" width="6.51935" height="6.68313" rx="3.25968" fill="#FFCD73"/>
<rect x="348.073" y="44.8604" width="6.51935" height="6.68313" rx="3.25968" fill="#CE7516"/>
<rect x="230.778" y="44.8604" width="6.51935" height="6.68313" rx="3.25968" fill="#E8EAEE"/>
<rect x="63.2149" y="44.8604" width="6.51935" height="6.68313" rx="3.25968" fill="#FFCD73"/>
<rect x="297.804" y="44.8604" width="6.51935" height="6.68313" rx="3.25968" fill="#E8EAEE"/>
<rect x="180.509" y="44.8604" width="6.51935" height="6.68313" rx="3.25968" fill="#E8EAEE"/>
<rect x="415.098" y="44.8604" width="6.51935" height="6.68313" rx="3.25968" fill="#89672A"/>
<rect x="440.179" y="44.9157" width="6.51935" height="6.68313" rx="3.25968" fill="#E8EAEE"/>
<rect x="121.862" y="44.8604" width="6.51935" height="6.68313" rx="3.25968" fill="#89672A"/>
<rect x="356.451" y="44.8604" width="6.51935" height="6.68313" rx="3.25968" fill="#E8EAEE"/>
<rect x="239.156" y="44.8604" width="6.51935" height="6.68313" rx="3.25968" fill="#E8EAEE"/>
<rect x="12.9459" y="53.0625" width="6.51935" height="6.68313" rx="3.25968" fill="#E8EAEE"/>
<rect x="247.535" y="53.0625" width="6.51935" height="6.68313" rx="3.25968" fill="#89672A"/>
<rect x="130.24" y="53.0625" width="6.51935" height="6.68313" rx="3.25968" fill="#FFCD73"/>
<rect x="364.829" y="53.0625" width="6.51935" height="6.68313" rx="3.25968" fill="#FFCD73"/>
<rect x="71.5931" y="53.0625" width="6.51935" height="6.68313" rx="3.25968" fill="#FFCD73"/>
<rect x="306.182" y="53.0625" width="6.51935" height="6.68313" rx="3.25968" fill="#CE7516"/>
<rect x="188.887" y="53.0625" width="6.51935" height="6.68313" rx="3.25968" fill="#E8EAEE"/>
<rect x="423.477" y="53.0625" width="6.51935" height="6.68313" rx="3.25968" fill="#FFCD73"/>
<rect x="448.557" y="53.1729" width="6.51935" height="6.68313" rx="3.25968" fill="#E8EAEE"/>
<rect x="21.3241" y="53.0625" width="6.51935" height="6.68313" rx="3.25968" fill="#FFCD73"/>
<rect x="255.913" y="53.0625" width="6.51935" height="6.68313" rx="3.25968" fill="#89672A"/>
<rect x="138.619" y="53.0625" width="6.51935" height="6.68313" rx="3.25968" fill="#89672A"/>
<rect x="373.207" y="53.0625" width="6.51935" height="6.68313" rx="3.25968" fill="#FFCD73"/>
<rect x="79.9713" y="53.0625" width="6.51935" height="6.68313" rx="3.25968" fill="#89672A"/>
<rect x="314.56" y="53.0625" width="6.51935" height="6.68313" rx="3.25968" fill="#89672A"/>
<rect x="197.266" y="53.0625" width="6.51935" height="6.68313" rx="3.25968" fill="#FFCD73"/>
<rect x="29.7022" y="53.0625" width="6.51935" height="6.68313" rx="3.25968" fill="#E8EAEE"/>
<rect x="264.291" y="53.0625" width="6.51935" height="6.68313" rx="3.25968" fill="#FFCD73"/>
<rect x="146.997" y="53.0625" width="6.51935" height="6.68313" rx="3.25968" fill="#FFCD73"/>
<rect x="381.586" y="53.0625" width="6.51935" height="6.68313" rx="3.25968" fill="#FFCD73"/>
<rect x="88.3494" y="53.0625" width="6.51935" height="6.68313" rx="3.25968" fill="#89672A"/>
<rect x="322.938" y="53.0625" width="6.51935" height="6.68313" rx="3.25968" fill="#E8EAEE"/>
<rect x="205.644" y="53.0625" width="6.51935" height="6.68313" rx="3.25968" fill="#E8EAEE"/>
<rect x="38.0804" y="53.0625" width="6.51935" height="6.68313" rx="3.25968" fill="#E8EAEE"/>
<rect x="272.669" y="53.0625" width="6.51935" height="6.68313" rx="3.25968" fill="#FFCD73"/>
<rect x="155.375" y="53.0625" width="6.51935" height="6.68313" rx="3.25968" fill="#E8EAEE"/>
<rect x="389.964" y="53.0625" width="6.51935" height="6.68313" rx="3.25968" fill="#FFCD73"/>
<rect x="96.7276" y="53.0625" width="6.51935" height="6.68313" rx="3.25968" fill="#E8EAEE"/>
<rect x="331.316" y="53.0625" width="6.51935" height="6.68313" rx="3.25968" fill="#CE7516"/>
<rect x="214.022" y="53.0625" width="6.51935" height="6.68313" rx="3.25968" fill="#E8EAEE"/>
<rect x="46.4586" y="53.0625" width="6.51935" height="6.68313" rx="3.25968" fill="#89672A"/>
<rect x="281.047" y="53.0625" width="6.51935" height="6.68313" rx="3.25968" fill="#89672A"/>
<rect x="163.753" y="53.0625" width="6.51935" height="6.68313" rx="3.25968" fill="#89672A"/>
<rect x="398.342" y="53.0625" width="6.51935" height="6.68313" rx="3.25968" fill="#FFCD73"/>
<rect x="105.106" y="53.0625" width="6.51935" height="6.68313" rx="3.25968" fill="#89672A"/>
<rect x="339.695" y="53.0625" width="6.51935" height="6.68313" rx="3.25968" fill="#FFCD73"/>
<rect x="222.4" y="53.0625" width="6.51935" height="6.68313" rx="3.25968" fill="#89672A"/>
<rect x="54.8368" y="53.0625" width="6.51935" height="6.68313" rx="3.25968" fill="#89672A"/>
<rect x="289.426" y="53.0625" width="6.51935" height="6.68313" rx="3.25968" fill="#FFCD73"/>
<rect x="172.131" y="53.0625" width="6.51935" height="6.68313" rx="3.25968" fill="#E8EAEE"/>
<rect x="406.72" y="53.0625" width="6.51935" height="6.68313" rx="3.25968" fill="#FFCD73"/>
<rect x="431.801" y="53.1729" width="6.51935" height="6.68313" rx="3.25968" fill="#FFCD73"/>
<rect x="113.484" y="53.0625" width="6.51935" height="6.68313" rx="3.25968" fill="#FFCD73"/>
<rect x="348.073" y="53.0625" width="6.51935" height="6.68313" rx="3.25968" fill="#89672A"/>
<rect x="230.778" y="53.0625" width="6.51935" height="6.68313" rx="3.25968" fill="#FFCD73"/>
<rect x="63.2149" y="53.0625" width="6.51935" height="6.68313" rx="3.25968" fill="#FFCD73"/>
<rect x="297.804" y="53.0625" width="6.51935" height="6.68313" rx="3.25968" fill="#E8EAEE"/>
<rect x="180.509" y="53.0625" width="6.51935" height="6.68313" rx="3.25968" fill="#E8EAEE"/>
<rect x="415.098" y="53.0625" width="6.51935" height="6.68313" rx="3.25968" fill="#FFCD73"/>
<rect x="440.179" y="53.1729" width="6.51935" height="6.68313" rx="3.25968" fill="#E8EAEE"/>
<rect x="121.862" y="53.0625" width="6.51935" height="6.68313" rx="3.25968" fill="#E8EAEE"/>
<rect x="356.451" y="53.0625" width="6.51935" height="6.68313" rx="3.25968" fill="#E8EAEE"/>
<rect x="239.156" y="53.0625" width="6.51935" height="6.68313" rx="3.25968" fill="#E8EAEE"/>
<rect x="12.9459" y="61.2645" width="6.51935" height="6.68313" rx="3.25968" fill="#FFCD73"/>
<rect x="247.535" y="61.2645" width="6.51935" height="6.68313" rx="3.25968" fill="#89672A"/>
<rect x="130.24" y="61.2645" width="6.51935" height="6.68313" rx="3.25968" fill="#FFCD73"/>
<rect x="364.829" y="61.2645" width="6.51935" height="6.68313" rx="3.25968" fill="#E8EAEE"/>
<rect x="71.5931" y="61.2645" width="6.51935" height="6.68313" rx="3.25968" fill="#FFCD73"/>
<rect x="306.182" y="61.2645" width="6.51935" height="6.68313" rx="3.25968" fill="#E8EAEE"/>
<rect x="188.887" y="61.2645" width="6.51935" height="6.68313" rx="3.25968" fill="#FFCD73"/>
<rect x="423.477" y="61.2645" width="6.51935" height="6.68313" rx="3.25968" fill="#FFCD73"/>
<rect x="448.557" y="61.1126" width="6.51935" height="6.68313" rx="3.25968" fill="#E8EAEE"/>
<rect x="21.3241" y="61.2645" width="6.51935" height="6.68313" rx="3.25968" fill="#E8EAEE"/>
<rect x="255.913" y="61.2645" width="6.51935" height="6.68313" rx="3.25968" fill="#E8EAEE"/>
<rect x="138.619" y="61.2645" width="6.51935" height="6.68313" rx="3.25968" fill="#FFCD73"/>
<rect x="373.207" y="61.2645" width="6.51935" height="6.68313" rx="3.25968" fill="#FFCD73"/>
<rect x="79.9713" y="61.2645" width="6.51935" height="6.68313" rx="3.25968" fill="#E8EAEE"/>
<rect x="314.56" y="61.2645" width="6.51935" height="6.68313" rx="3.25968" fill="#E8EAEE"/>
<rect x="197.266" y="61.2645" width="6.51935" height="6.68313" rx="3.25968" fill="#E8EAEE"/>
<rect x="29.7022" y="61.2645" width="6.51935" height="6.68313" rx="3.25968" fill="#FFCD73"/>
<rect x="264.291" y="61.2645" width="6.51935" height="6.68313" rx="3.25968" fill="#E8EAEE"/>
<rect x="146.997" y="61.2645" width="6.51935" height="6.68313" rx="3.25968" fill="#FFCD73"/>
<rect x="381.586" y="61.2645" width="6.51935" height="6.68313" rx="3.25968" fill="#FFCD73"/>
<rect x="88.3494" y="61.2645" width="6.51935" height="6.68313" rx="3.25968" fill="#89672A"/>
<rect x="322.938" y="61.2645" width="6.51935" height="6.68313" rx="3.25968" fill="#E8EAEE"/>
<rect x="205.644" y="61.2645" width="6.51935" height="6.68313" rx="3.25968" fill="#FFCD73"/>
<rect x="38.0804" y="61.2645" width="6.51935" height="6.68313" rx="3.25968" fill="#E8EAEE"/>
<rect x="272.669" y="61.2645" width="6.51935" height="6.68313" rx="3.25968" fill="#E8EAEE"/>
<rect x="155.375" y="61.2645" width="6.51935" height="6.68313" rx="3.25968" fill="#89672A"/>
<rect x="389.964" y="61.2645" width="6.51935" height="6.68313" rx="3.25968" fill="#FFCD73"/>
<rect x="96.7276" y="61.2645" width="6.51935" height="6.68313" rx="3.25968" fill="#E8EAEE"/>
<rect x="331.316" y="61.2645" width="6.51935" height="6.68313" rx="3.25968" fill="#CE7516"/>
<rect x="214.022" y="61.2645" width="6.51935" height="6.68313" rx="3.25968" fill="#E8EAEE"/>
<rect x="46.4586" y="61.2645" width="6.51935" height="6.68313" rx="3.25968" fill="#FFCD73"/>
<rect x="281.047" y="61.2645" width="6.51935" height="6.68313" rx="3.25968" fill="#FFCD73"/>
<rect x="163.753" y="61.2645" width="6.51935" height="6.68313" rx="3.25968" fill="#E8EAEE"/>
<rect x="398.342" y="61.2645" width="6.51935" height="6.68313" rx="3.25968" fill="#FFCD73"/>
<rect x="105.106" y="61.2645" width="6.51935" height="6.68313" rx="3.25968" fill="#89672A"/>
<rect x="339.695" y="61.2645" width="6.51935" height="6.68313" rx="3.25968" fill="#89672A"/>
<rect x="222.4" y="61.2645" width="6.51935" height="6.68313" rx="3.25968" fill="#E8EAEE"/>
<rect x="54.8368" y="61.2645" width="6.51935" height="6.68313" rx="3.25968" fill="#E8EAEE"/>
<rect x="289.426" y="61.2645" width="6.51935" height="6.68313" rx="3.25968" fill="#89672A"/>
<rect x="172.131" y="61.2645" width="6.51935" height="6.68313" rx="3.25968" fill="#E8EAEE"/>
<rect x="406.72" y="61.2645" width="6.51935" height="6.68313" rx="3.25968" fill="#FFCD73"/>
<rect x="431.801" y="61.1126" width="6.51935" height="6.68313" rx="3.25968" fill="#E8EAEE"/>
<rect x="113.484" y="61.2645" width="6.51935" height="6.68313" rx="3.25968" fill="#FFCD73"/>
<rect x="348.073" y="61.2645" width="6.51935" height="6.68313" rx="3.25968" fill="#89672A"/>
<rect x="230.778" y="61.2645" width="6.51935" height="6.68313" rx="3.25968" fill="#FFCD73"/>
<rect x="63.2149" y="61.2645" width="6.51935" height="6.68313" rx="3.25968" fill="#FFCD73"/>
<rect x="297.804" y="61.2645" width="6.51935" height="6.68313" rx="3.25968" fill="#FFCD73"/>
<rect x="180.509" y="61.2645" width="6.51935" height="6.68313" rx="3.25968" fill="#FFCD73"/>
<rect x="415.098" y="61.2645" width="6.51935" height="6.68313" rx="3.25968" fill="#E8EAEE"/>
<rect x="440.179" y="61.1126" width="6.51935" height="6.68313" rx="3.25968" fill="#E8EAEE"/>
<rect x="121.862" y="61.2645" width="6.51935" height="6.68313" rx="3.25968" fill="#89672A"/>
<rect x="356.451" y="61.2645" width="6.51935" height="6.68313" rx="3.25968" fill="#FFCD73"/>
<rect x="239.156" y="61.2645" width="6.51935" height="6.68313" rx="3.25968" fill="#89672A"/>
</g>
<defs>
<filter id="filter0_d_130_90" x="2" y="6" width="464" height="76" filterUnits="userSpaceOnUse" color-interpolation-filters="sRGB">
<feFlood flood-opacity="0" result="BackgroundImageFix"/>
<feColorMatrix in="SourceAlpha" type="matrix" values="0 0 0 0 0 0 0 0 0 0 0 0 0 0 0 0 0 0 127 0" result="hardAlpha"/>
<feOffset dy="4"/>
<feGaussianBlur stdDeviation="2"/>
<feComposite in2="hardAlpha" operator="out"/>
<feColorMatrix type="matrix" values="0 0 0 0 0 0 0 0 0 0 0 0 0 0 0 0 0 0 0.25 0"/>
<feBlend mode="normal" in2="BackgroundImageFix" result="effect1_dropShadow_130_90"/>
<feBlend mode="normal" in="SourceGraphic" in2="effect1_dropShadow_130_90" result="shape"/>
</filter>
<filter id="filter1_d_130_90" x="0" y="0" width="500" height="112" filterUnits="userSpaceOnUse" color-interpolation-filters="sRGB">
<feFlood flood-opacity="0" result="BackgroundImageFix"/>
<feColorMatrix in="SourceAlpha" type="matrix" values="0 0 0 0 0 0 0 0 0 0 0 0 0 0 0 0 0 0 127 0" result="hardAlpha"/>
<feMorphology radius="2" operator="erode" in="SourceAlpha" result="effect1_dropShadow_130_90"/>
<feOffset dx="16" dy="16"/>
<feGaussianBlur stdDeviation="12"/>
<feColorMatrix type="matrix" values="0 0 0 0 0 0 0 0 0 0 0 0 0 0 0 0 0 0 0.05 0"/>
<feBlend mode="normal" in2="BackgroundImageFix" result="effect1_dropShadow_130_90"/>
<feBlend mode="normal" in="SourceGraphic" in2="effect1_dropShadow_130_90" result="shape"/>
</filter>
</defs>
</svg>
